<?xml version="1.0" encoding="UTF-8" standalone="no"?>
<svg
   viewBox="0 0 32 32"
   width="30"
   role="presentation"
   alt=""
   data-testid="TwitterIcon"
   size="30"
   color="currentColor"
   version="1.1"
   id="svg1207"
   sodipodi:docname="twitterlogo.svg"
   inkscape:version="1.1.1 (3bf5ae0d25, 2021-09-20)"
   xmlns:inkscape="http://www.inkscape.org/namespaces/inkscape"
   xmlns:sodipodi="http://sodipodi.sourceforge.net/DTD/sodipodi-0.dtd"
   xmlns="http://www.w3.org/2000/svg"
   xmlns:svg="http://www.w3.org/2000/svg">
  <defs
     id="defs1211" />
  <sodipodi:namedview
     id="namedview1209"
     pagecolor="#ffffff"
     bordercolor="#666666"
     borderopacity="1.0"
     inkscape:pageshadow="2"
     inkscape:pageopacity="0.0"
     inkscape:pagecheckerboard="0"
     showgrid="false"
     inkscape:zoom="26"
     inkscape:cx="15"
     inkscape:cy="16.019231"
     inkscape:window-width="1920"
     inkscape:window-height="1017"
     inkscape:window-x="-8"
     inkscape:window-y="-8"
     inkscape:window-maximized="1"
     inkscape:current-layer="svg1207" />
  <path
     d="M28.73 9.48v.85C28.75 19 22.16 29 10.11 29A18.65 18.65 0 0 1 .06 26a13.61 13.61 0 0 0 1.56.1 13.2 13.2 0 0 0 8.14-2.81 6.58 6.58 0 0 1-6.12-4.55 6.58 6.58 0 0 0 3-.12 6.54 6.54 0 0 1-5.26-6.42v-.08a6.46 6.46 0 0 0 3 .82 6.57 6.57 0 0 1-2-8.75 18.62 18.62 0 0 0 13.5 6.85A6.56 6.56 0 0 1 27 5.09a13.32 13.32 0 0 0 4.12-1.59 6.56 6.56 0 0 1-2.88 3.62 13 13 0 0 0 3.76-1 13.18 13.18 0 0 1-3.27 3.36z"
     fill="currentColor"
     id="path1205"
     style="fill:#ffffff" />
</svg>
