<?xml version="1.0" encoding="UTF-8" standalone="no"?>
<svg
   viewBox="0 0 32 32"
   width="30"
   role="presentation"
   alt=""
   data-testid="YoutubeIcon"
   size="30"
   color="currentColor"
   version="1.1"
   id="svg834"
   sodipodi:docname="youtubelogo.svg"
   inkscape:version="1.1.1 (3bf5ae0d25, 2021-09-20)"
   xmlns:inkscape="http://www.inkscape.org/namespaces/inkscape"
   xmlns:sodipodi="http://sodipodi.sourceforge.net/DTD/sodipodi-0.dtd"
   xmlns="http://www.w3.org/2000/svg"
   xmlns:svg="http://www.w3.org/2000/svg">
  <defs
     id="defs838" />
  <sodipodi:namedview
     id="namedview836"
     pagecolor="#ffffff"
     bordercolor="#666666"
     borderopacity="1.0"
     inkscape:pageshadow="2"
     inkscape:pageopacity="0.0"
     inkscape:pagecheckerboard="0"
     showgrid="false"
     inkscape:zoom="25.28125"
     inkscape:cx="14.991347"
     inkscape:cy="16"
     inkscape:window-width="1920"
     inkscape:window-height="1017"
     inkscape:window-x="-8"
     inkscape:window-y="-8"
     inkscape:window-maximized="1"
     inkscape:current-layer="svg834" />
  <path
     d="M31.33 8.3a4 4 0 0 0-2.83-2.83C26 4.8 16 4.8 16 4.8s-10 0-12.5.67A4 4 0 0 0 .67 8.3 41.51 41.51 0 0 0 0 16a41.51 41.51 0 0 0 .67 7.7 4 4 0 0 0 2.83 2.83c2.5.67 12.5.67 12.5.67s10 0 12.5-.67a4 4 0 0 0 2.83-2.83A41.51 41.51 0 0 0 32 16a41.51 41.51 0 0 0-.67-7.7zM12.8 20.8v-9.6l8.31 4.8z"
     fill="currentColor"
     id="path832"
     style="fill:#ffffff" />
</svg>
